<svg width="31" height="34" viewBox="0 0 31 34" fill="none" xmlns="http://www.w3.org/2000/svg">
<path d="M4.49466 33.6667H3.26222C1.8537 33.2626 1.18114 32.237 0.932888 30.8673C0.869787 30.5261 0.837378 30.1799 0.836053 29.8329C0.836053 21.2938 0.836053 12.7547 0.836053 4.21555C0.832678 3.69464 0.903522 3.17591 1.04645 2.67499C1.39858 1.46015 2.1134 0.589513 3.42331 0.378236C4.29659 0.238265 5.13378 0.449538 5.9023 0.863288C6.95868 1.43374 8.00274 2.03588 9.04592 2.63362C15.5128 6.34094 21.979 10.0486 28.4447 13.7565C29.1357 14.1526 29.7792 14.6033 30.2687 15.2477C31.1173 16.3631 31.1173 17.6748 30.2687 18.791C29.7792 19.4354 29.1348 19.8861 28.4447 20.2823C21.2542 24.4057 14.0649 28.53 6.87681 32.6552C6.11709 33.0883 5.3565 33.4906 4.49466 33.6667Z" fill="black"/>
</svg>
